<svg width="28" height="102" viewBox="0 0 28 102" fill="none" xmlns="http://www.w3.org/2000/svg">
<path opacity="0.75" d="M16.2812 101.234C15.2969 101.417 14.2669 101.389 13.1914 101.152C12.0977 100.897 11.013 100.496 9.9375 99.9492C8.86198 99.4023 7.83203 98.7279 6.84766 97.9258C5.84505 97.1237 4.94271 96.2669 4.14062 95.3555C3.33854 94.4258 2.66406 93.4596 2.11719 92.457C1.57031 91.4362 1.19661 90.4427 0.996093 89.4766C0.996093 89.1849 1.08724 88.9297 1.26953 88.7109C1.45182 88.474 1.67969 88.2734 1.95312 88.1094C2.22656 87.9453 2.51823 87.8268 2.82812 87.7539C3.13802 87.6628 3.42057 87.6172 3.67578 87.6172L6.32812 87.6172C6.51042 87.6172 6.62891 87.6901 6.68359 87.8359C6.72005 87.9818 6.73828 88.1094 6.73828 88.2187C6.73828 88.3464 6.72005 88.5013 6.68359 88.6836C6.64713 88.8659 6.52865 88.957 6.32812 88.957C6.25521 88.957 6.13672 88.9661 5.97266 88.9844C5.80859 89.0026 5.6263 89.0208 5.42578 89.0391C5.22526 89.0573 5.03385 89.0755 4.85156 89.0937C4.66927 89.0937 4.55078 89.0937 4.49609 89.0937C4.45963 89.0937 4.34115 89.1029 4.14062 89.1211C3.92187 89.1211 3.70312 89.1393 3.48437 89.1758C3.26562 89.2122 3.0651 89.2669 2.88281 89.3398C2.70052 89.4128 2.60937 89.5039 2.60937 89.6133L2.60937 90.5703C2.60937 90.5703 2.65495 90.6523 2.74609 90.8164C2.81901 90.9805 2.91016 91.1719 3.01953 91.3906C3.12891 91.6094 3.2474 91.8281 3.375 92.0469C3.48437 92.2656 3.58463 92.4297 3.67578 92.5391C3.71224 92.5937 3.77604 92.6849 3.86719 92.8125C3.95833 92.9219 4.04948 93.0404 4.14062 93.168C4.23177 93.2956 4.32292 93.4141 4.41406 93.5234C4.50521 93.6328 4.56901 93.7148 4.60547 93.7695C5.55339 94.7539 6.4375 95.6107 7.25781 96.3398C8.0599 97.069 8.89844 97.6797 9.77344 98.1719C10.6484 98.6641 11.5964 99.0378 12.6172 99.293C13.6198 99.5299 14.8138 99.6484 16.1992 99.6484C16.7461 99.6484 17.3568 99.6211 18.0312 99.5664C18.6875 99.4935 19.362 99.3932 20.0547 99.2656C20.7474 99.1198 21.431 98.9193 22.1055 98.6641C22.7617 98.4089 23.3451 98.0898 23.8555 97.707C24.3659 97.3242 24.776 96.8594 25.0859 96.3125C25.3958 95.7656 25.5508 95.1185 25.5508 94.3711L25.5508 93.7695C25.2773 92.9492 25.0312 92.2292 24.8125 91.6094C24.5755 90.9714 24.3385 90.4062 24.1016 89.9141C23.8646 89.4036 23.6094 88.9479 23.3359 88.5469C23.0443 88.1276 22.6979 87.7266 22.2969 87.3437C21.8958 86.9427 21.4128 86.5326 20.8477 86.1133C20.2826 85.694 19.6172 85.2201 18.8516 84.6914C18.8516 84.6732 18.8516 84.6458 18.8516 84.6094C18.8333 84.5729 18.8242 84.5365 18.8242 84.5C18.8242 84.1719 18.9883 84.0078 19.3164 84.0078C19.7357 84.0078 20.2096 84.1172 20.7383 84.3359C21.2487 84.5365 21.8138 84.9193 22.4336 85.4844C23.0534 86.0312 23.7096 86.806 24.4023 87.8086C25.0768 88.793 25.7604 90.0599 26.4531 91.6094C26.5807 91.901 26.6901 92.1562 26.7812 92.375C26.8542 92.5937 26.9089 92.8034 26.9453 93.0039C26.9818 93.2044 27 93.4141 27 93.6328C27.0182 93.8333 27.0273 94.0612 27.0273 94.3164C27.0273 95.2643 26.8633 96.0937 26.5352 96.8047C26.207 97.4974 25.7695 98.099 25.2227 98.6094C24.6576 99.1198 24.0195 99.5482 23.3086 99.8945C22.5794 100.223 21.8138 100.487 21.0117 100.687C20.1914 100.888 19.3802 101.034 18.5781 101.125C17.7578 101.198 16.9922 101.234 16.2812 101.234ZM24.8672 84.7187C24.849 84.7187 24.7852 84.7096 24.6758 84.6914C24.5664 84.6732 24.457 84.6549 24.3477 84.6367C24.2201 84.6185 24.1107 84.6003 24.0195 84.582C23.9102 84.5638 23.8372 84.5547 23.8008 84.5547L23.6914 84.5547L23.5273 84.5547L21.8047 84.1719C21.1484 83.862 20.5195 83.543 19.918 83.2148C19.3164 82.8685 18.7878 82.4766 18.332 82.0391C17.8763 81.6016 17.5117 81.1003 17.2383 80.5352C16.9648 79.9518 16.8281 79.25 16.8281 78.4297C16.8281 78.2656 16.8828 78.0651 16.9922 77.8281C17.0833 77.5729 17.2018 77.3268 17.3477 77.0898C17.4935 76.8346 17.6484 76.6068 17.8125 76.4062C17.9583 76.1875 18.0951 76.0234 18.2227 75.9141C18.1315 75.349 18.0859 74.9388 18.0859 74.6836C18.0677 74.4284 18.0586 74.2096 18.0586 74.0273C18.0404 73.8451 18.0039 73.6536 17.9492 73.4531C17.8945 73.2344 17.776 72.9062 17.5937 72.4687C17.5026 72.1589 17.457 71.8581 17.457 71.5664C17.457 71.4388 17.5117 71.3203 17.6211 71.2109C17.7305 71.0833 17.8581 71.0195 18.0039 71.0195C18.1862 71.0195 18.3503 71.0833 18.4961 71.2109C18.6419 71.3385 18.7331 71.4935 18.7695 71.6758L19.5352 75.0937L19.6719 75.3945C20.6562 75.4128 21.5951 75.6315 22.4883 76.0508C23.3815 76.4701 24.1654 77.026 24.8398 77.7187C25.5143 78.4115 26.0521 79.2135 26.4531 80.125C26.8359 81.0365 27.0273 81.9844 27.0273 82.9687C27.0273 83.0417 27.0182 83.1602 27 83.3242C27 83.4883 27 83.5977 27 83.6523C26.8359 84.0534 26.5352 84.3359 26.0977 84.5C25.6602 84.6458 25.25 84.7187 24.8672 84.7187ZM25.4141 82.9687C25.5052 82.9505 25.5508 82.8776 25.5508 82.75C25.5508 82.6224 25.5508 82.5312 25.5508 82.4766C25.5508 81.8203 25.3867 81.1458 25.0586 80.4531C24.7122 79.7604 24.2747 79.1406 23.7461 78.5937C23.1992 78.0286 22.5885 77.5729 21.9141 77.2266C21.2214 76.862 20.5286 76.6797 19.8359 76.6797C19.8359 77.263 19.7904 77.8464 19.6992 78.4297C19.5898 79.013 19.5352 79.5781 19.5352 80.125L19.5352 80.1523L21.9414 82.4219C22.069 82.5495 22.2422 82.6497 22.4609 82.7227C22.6797 82.7956 22.9167 82.8503 23.1719 82.8867C23.4271 82.9232 23.6823 82.9505 23.9375 82.9687C24.1927 82.987 24.4206 82.9961 24.6211 82.9961C24.6758 82.9961 24.8034 82.9961 25.0039 82.9961C25.2044 82.9961 25.3411 82.987 25.4141 82.9687ZM26.4531 71.6758L20.9844 70.7461L20.2187 70.7461L16.582 70.1992C16.5091 70.1445 16.4727 70.0443 16.4727 69.8984C16.4544 69.7526 16.4453 69.6523 16.4453 69.5977C16.4453 69.4518 16.5 69.2878 16.6094 69.1055C16.7005 68.9049 16.8281 68.8047 16.9922 68.8047L18.8516 68.8047C18.7969 68.7318 18.6875 68.6042 18.5234 68.4219C18.3594 68.2396 18.1862 68.0482 18.0039 67.8477C17.8216 67.6289 17.6484 67.4284 17.4844 67.2461C17.3203 67.0638 17.2018 66.9453 17.1289 66.8906C16.9466 66.6901 16.7917 66.4531 16.6641 66.1797C16.5365 65.888 16.4727 65.6146 16.4727 65.3594C16.4727 64.8307 16.6367 64.4206 16.9648 64.1289C17.293 63.819 17.7122 63.6641 18.2227 63.6641C18.2591 63.6641 18.2865 63.6732 18.3047 63.6914C18.3047 63.6914 18.3229 63.6914 18.3594 63.6914L18.4687 63.6914L23.1445 64.7305L25.3594 64.7305C25.3594 64.1654 25.25 63.582 25.0312 62.9805C24.7943 62.3607 24.5026 61.7682 24.1562 61.2031C23.8099 60.638 23.418 60.1094 22.9805 59.6172C22.5247 59.125 22.0872 58.6966 21.668 58.332L21.668 58.2227C21.668 58.0951 21.7135 57.9948 21.8047 57.9219C21.8776 57.8307 21.9779 57.7852 22.1055 57.7852C22.5065 57.7852 22.9076 57.9219 23.3086 58.1953C23.6914 58.4505 24.056 58.7878 24.4023 59.207C24.7487 59.6081 25.0768 60.082 25.3867 60.6289C25.6966 61.1576 25.9609 61.6862 26.1797 62.2148C26.3984 62.7253 26.5716 63.2266 26.6992 63.7187C26.8268 64.2109 26.8906 64.6302 26.8906 64.9766C26.8906 65.3229 26.8268 65.5964 26.6992 65.7969C26.5716 65.9974 26.4076 66.1523 26.207 66.2617C25.9883 66.3529 25.7513 66.4167 25.4961 66.4531C25.2409 66.4714 24.9674 66.4805 24.6758 66.4805L24.3203 66.4805L19.0156 65.4141L18.1133 65.4141C18.1133 65.8516 18.3047 66.2891 18.6875 66.7266C19.0703 67.1458 19.5352 67.5286 20.082 67.875C20.6289 68.2031 21.1849 68.4948 21.75 68.75C22.3151 68.987 22.7799 69.1602 23.1445 69.2695C23.2721 69.306 23.5 69.3607 23.8281 69.4336C24.1562 69.5065 24.5026 69.5794 24.8672 69.6523C25.2318 69.707 25.5781 69.7617 25.9062 69.8164C26.2344 69.8711 26.4714 69.9076 26.6172 69.9258C26.7266 69.9076 26.8086 69.944 26.8633 70.0352C26.918 70.1081 26.9635 70.1992 27 70.3086C27.0182 70.418 27.0273 70.5365 27.0273 70.6641C27.0273 70.7734 27.0273 70.8646 27.0273 70.9375C27.0273 71.1016 27 71.2656 26.9453 71.4297C26.8906 71.5937 26.7539 71.6758 26.5352 71.6758L26.4531 71.6758ZM19.6719 58.4687C19.599 58.4323 19.4896 58.3594 19.3437 58.25C19.1797 58.1406 19.043 58.0859 18.9336 58.0859L18.8516 58.0859C18.8333 58.0859 18.8151 58.1042 18.7969 58.1406C18.7604 58.1771 18.7422 58.2044 18.7422 58.2227L18.7422 58.7148C18.888 59.1888 18.9883 59.7174 19.043 60.3008C19.0977 60.9023 19.1159 61.4766 19.0977 62.0234C19.0794 62.5885 19.0339 63.0716 18.9609 63.4727C18.8698 63.8737 18.7695 64.1107 18.6602 64.1836C18.5508 64.2565 18.4232 64.1198 18.2773 63.7734C18.1133 63.4271 17.9492 62.7708 17.7852 61.8047C17.7852 61.75 17.7669 61.6224 17.7305 61.4219C17.6758 61.2396 17.6302 61.0299 17.5937 60.793C17.5573 60.5742 17.5208 60.3646 17.4844 60.1641C17.4297 59.9635 17.4023 59.8359 17.4023 59.7812C17.3841 59.7083 17.375 59.5534 17.375 59.3164C17.3568 59.0794 17.3385 58.8424 17.3203 58.6055C17.3021 58.3503 17.293 58.1133 17.293 57.8945C17.293 57.6576 17.293 57.4935 17.293 57.4023L17.1289 57.2656L13.5469 55.1328C13.4193 55.0599 13.319 54.9323 13.2461 54.75C13.1732 54.5495 13.1367 54.3945 13.1367 54.2852C13.1367 54.0482 13.237 53.8841 13.4375 53.793C13.6198 53.7018 13.8021 53.6562 13.9844 53.6562C14.0026 53.6562 14.0208 53.6654 14.0391 53.6836C14.0573 53.6836 14.0755 53.6836 14.0937 53.6836L14.2031 53.6836L17.1289 54.8867L17.293 54.8867C17.1836 54.8503 17.1289 54.7865 17.1289 54.6953C17.1289 54.5859 17.1289 54.5039 17.1289 54.4492C17.1289 54.1758 17.22 53.9115 17.4023 53.6562C17.5846 53.401 17.8307 53.2734 18.1406 53.2734C18.2865 53.2734 18.4049 53.319 18.4961 53.4102C18.5872 53.5013 18.6602 53.6107 18.7148 53.7383C18.7695 53.8659 18.8151 54.0026 18.8516 54.1484C18.8698 54.2943 18.8789 54.4219 18.8789 54.5312C18.8789 54.75 18.8516 54.9596 18.7969 55.1602C18.7422 55.3424 18.7148 55.543 18.7148 55.7617C18.7148 55.9622 18.8242 56.1445 19.043 56.3086C19.2435 56.4727 19.5169 56.6276 19.8633 56.7734C20.1914 56.901 20.5651 57.0104 20.9844 57.1016C21.4036 57.1927 21.8138 57.2747 22.2148 57.3477C22.6159 57.4206 22.9896 57.4753 23.3359 57.5117C23.6823 57.5299 23.9466 57.5391 24.1289 57.5391C24.2018 57.5391 24.3477 57.5391 24.5664 57.5391C24.7852 57.5208 24.931 57.5117 25.0039 57.5117C25.1133 57.4935 25.2135 57.4479 25.3047 57.375C25.3776 57.3021 25.4596 57.2292 25.5508 57.1562L25.5508 56.5273C25.5508 55.7982 25.3867 55.0781 25.0586 54.3672C24.7305 53.638 24.3568 52.9544 23.9375 52.3164C23.9193 52.2799 23.8372 52.1979 23.6914 52.0703C23.5273 51.9245 23.3724 51.7695 23.2266 51.6055C23.0625 51.4414 22.9167 51.2956 22.7891 51.168C22.6615 51.0221 22.5977 50.9219 22.5977 50.8672C22.5977 50.7396 22.6615 50.6211 22.7891 50.5117C22.9167 50.4023 23.0534 50.3477 23.1992 50.3477C23.5456 50.3477 23.8828 50.4753 24.2109 50.7305C24.5391 50.9674 24.849 51.2773 25.1406 51.6602C25.4141 52.043 25.6693 52.4805 25.9062 52.9727C26.1432 53.4648 26.3437 53.957 26.5078 54.4492C26.6719 54.9232 26.7995 55.3789 26.8906 55.8164C26.9818 56.2357 27.0273 56.582 27.0273 56.8555C27.0273 57.1107 27 57.375 26.9453 57.6484C26.8724 57.9219 26.763 58.168 26.6172 58.3867C26.4714 58.6055 26.2891 58.7878 26.0703 58.9336C25.8516 59.0794 25.5781 59.1523 25.25 59.1523L22.2148 59.1523L19.6719 58.4687ZM26.1797 51.0039C26.125 51.0039 25.9883 51.0039 25.7695 51.0039C25.5508 51.0039 25.4049 51.0039 25.332 51.0039C24.2383 51.3138 23.1628 51.3594 22.1055 51.1406C21.0482 50.9036 20.1003 50.4935 19.2617 49.9102C18.4049 49.3086 17.694 48.5521 17.1289 47.6406C16.5456 46.7109 16.1901 45.6992 16.0625 44.6055L16.0625 44.1133C16.0625 43.7122 16.1536 43.3841 16.3359 43.1289C16.5 42.8555 16.7187 42.6458 16.9922 42.5C17.2656 42.3359 17.5755 42.2266 17.9219 42.1719C18.2682 42.099 18.6146 42.0625 18.9609 42.0625C19.4349 42.0625 19.8997 42.1172 20.3555 42.2266C20.793 42.3177 21.2396 42.4271 21.6953 42.5547C22.151 42.6641 22.6068 42.7734 23.0625 42.8828C23.5 42.974 23.9648 43.0195 24.457 43.0195L24.6211 43.0195C24.6575 43.0013 24.7669 42.9831 24.9492 42.9648C25.1133 42.9284 25.2135 42.901 25.25 42.8828C25.25 42.8464 25.2591 42.7552 25.2773 42.6094C25.2773 42.4635 25.2773 42.3724 25.2773 42.3359C25.2773 42.1536 25.2773 41.9805 25.2773 41.8164C25.2591 41.6341 25.2135 41.4518 25.1406 41.2695L22.7344 36.0742C22.7344 36.056 22.7344 36.0286 22.7344 35.9922C22.7161 35.9375 22.707 35.901 22.707 35.8828C22.707 35.7005 22.7617 35.5547 22.8711 35.4453C22.9805 35.3177 23.1263 35.2539 23.3086 35.2539C23.3997 35.2539 23.4909 35.263 23.582 35.2812C23.6549 35.2812 23.7279 35.3268 23.8008 35.418C23.8919 35.5456 24.0195 35.7826 24.1836 36.1289C24.3477 36.457 24.5299 36.8125 24.7305 37.1953C24.931 37.5781 25.1224 37.9427 25.3047 38.2891C25.487 38.6172 25.6055 38.8542 25.6602 39C25.806 39.2552 25.9427 39.5378 26.0703 39.8477C26.1797 40.1576 26.2891 40.4766 26.3984 40.8047C26.5078 41.1328 26.599 41.4609 26.6719 41.7891C26.7266 42.099 26.7539 42.3815 26.7539 42.6367C26.7539 43.0378 26.6901 43.3659 26.5625 43.6211C26.4167 43.8763 26.2344 44.0677 26.0156 44.1953C25.7786 44.3229 25.5052 44.4141 25.1953 44.4687C24.8672 44.5052 24.5299 44.5052 24.1836 44.4687C24.4753 44.8333 24.7852 45.2253 25.1133 45.6445C25.4414 46.0638 25.7422 46.5013 26.0156 46.957C26.2891 47.4128 26.526 47.8776 26.7266 48.3516C26.9271 48.8255 27.0273 49.3086 27.0273 49.8008C27.0273 50.0742 26.9635 50.3203 26.8359 50.5391C26.6901 50.7578 26.4714 50.9128 26.1797 51.0039ZM25.6055 49.5273C25.6055 49.1081 25.487 48.6432 25.25 48.1328C24.9948 47.6224 24.6849 47.1211 24.3203 46.6289C23.9557 46.1367 23.5729 45.6901 23.1719 45.2891C22.7526 44.888 22.3789 44.5781 22.0508 44.3594C21.5039 44.3411 20.9844 44.2682 20.4922 44.1406C19.9818 43.9948 19.4622 43.9219 18.9336 43.9219C18.8971 43.9219 18.8424 43.931 18.7695 43.9492C18.6966 43.9492 18.6419 43.9492 18.6055 43.9492C18.4049 44.1862 18.2865 44.3867 18.25 44.5508C18.2135 44.7148 18.1953 44.9336 18.1953 45.207C18.1953 45.2435 18.1953 45.3255 18.1953 45.4531C18.1953 45.5625 18.2044 45.6354 18.2227 45.6719C18.3138 45.7812 18.487 45.9635 18.7422 46.2187C18.9792 46.474 19.2435 46.7474 19.5352 47.0391C19.8268 47.3125 20.1003 47.5768 20.3555 47.832C20.6107 48.069 20.7839 48.2331 20.875 48.3242C20.875 48.3424 20.9115 48.3789 20.9844 48.4336C21.0391 48.4883 21.112 48.5521 21.2031 48.625C21.2943 48.6797 21.3854 48.7344 21.4766 48.7891C21.5495 48.8255 21.6133 48.8529 21.668 48.8711L24.8672 49.5273L25.6055 49.5273ZM23.2539 36.1562C22.3242 36.0651 21.4401 35.8555 20.6016 35.5273C19.763 35.181 19.043 34.7891 18.4414 34.3516C17.8398 33.8958 17.375 33.4401 17.0469 32.9844C16.7187 32.5104 16.6185 32.1003 16.7461 31.7539C16.6914 31.6628 16.6458 31.5898 16.6094 31.5352C16.5547 31.4622 16.5091 31.4076 16.4727 31.3711C16.418 31.3164 16.3815 31.2617 16.3633 31.207C16.3268 31.1341 16.3086 31.0339 16.3086 30.9062C16.3086 30.651 16.3906 30.4232 16.5547 30.2227C16.7187 30.0221 16.9193 29.849 17.1562 29.7031C17.3932 29.5391 17.6484 29.4206 17.9219 29.3477C18.1771 29.2565 18.4141 29.2109 18.6328 29.2109C18.8698 29.2109 19.0339 29.3021 19.125 29.4844C19.2161 29.6667 19.2617 29.8763 19.2617 30.1133C19.2617 30.2591 19.2344 30.3867 19.1797 30.4961C19.1068 30.6055 19.0247 30.7057 18.9336 30.7969C18.8424 30.8698 18.7513 30.9518 18.6602 31.043C18.569 31.1341 18.5052 31.2526 18.4687 31.3984L18.4687 31.4258L18.4687 31.5078C18.487 31.526 18.5325 31.5716 18.6055 31.6445C18.6602 31.6992 18.7057 31.7357 18.7422 31.7539C19.1979 32.1367 19.6081 32.4922 19.9727 32.8203C20.319 33.1484 20.6745 33.4401 21.0391 33.6953C21.4036 33.9323 21.7956 34.1237 22.2148 34.2695C22.6341 34.3971 23.1354 34.4609 23.7187 34.4609C23.7734 34.4609 23.8555 34.4609 23.9648 34.4609C24.0742 34.4609 24.1836 34.4609 24.293 34.4609C24.4023 34.4427 24.5117 34.4336 24.6211 34.4336C24.7305 34.4336 24.8125 34.4336 24.8672 34.4336C25.0495 34.3971 25.1862 34.2969 25.2773 34.1328C25.3685 33.9505 25.4596 33.7865 25.5508 33.6406C25.5508 33.5859 25.5599 33.4492 25.5781 33.2305C25.5781 33.0117 25.5781 32.8841 25.5781 32.8477C25.5781 32.1914 25.4779 31.4167 25.2773 30.5234C25.0586 29.6302 24.776 28.737 24.4297 27.8437C24.0833 26.9323 23.6732 26.0755 23.1992 25.2734C22.707 24.4714 22.1966 23.8333 21.668 23.3594C21.5221 23.25 21.3216 23.1589 21.0664 23.0859C20.8112 22.9948 20.5651 22.9036 20.3281 22.8125C20.0729 22.7031 19.8542 22.5846 19.6719 22.457C19.4896 22.3294 19.3984 22.138 19.3984 21.8828C19.3984 21.6458 19.4987 21.5 19.6992 21.4453C19.8815 21.3724 20.0638 21.3359 20.2461 21.3359C20.8294 21.3359 21.3581 21.4818 21.832 21.7734C22.306 22.0469 22.7344 22.3932 23.1172 22.8125C23.5 23.2318 23.8372 23.6966 24.1289 24.207C24.4206 24.6992 24.6667 25.1732 24.8672 25.6289C24.9036 25.7565 25.0039 26.0391 25.168 26.4766C25.332 26.8958 25.5052 27.3516 25.6875 27.8437C25.8698 28.3359 26.0521 28.819 26.2344 29.293C26.3984 29.7487 26.526 30.0859 26.6172 30.3047C26.7083 30.5964 26.7812 30.8424 26.8359 31.043C26.8724 31.2435 26.9089 31.4258 26.9453 31.5898C26.9818 31.7539 27 31.9271 27 32.1094C27.0182 32.2734 27.0273 32.474 27.0273 32.7109C27.0273 33.3672 26.9453 33.9141 26.7812 34.3516C26.6172 34.7708 26.3802 35.1081 26.0703 35.3633C25.7422 35.6185 25.3503 35.8099 24.8945 35.9375C24.4206 36.0469 23.8737 36.1198 23.2539 36.1562ZM19.6719 21.582C19.599 21.5456 19.4896 21.4727 19.3437 21.3633C19.1797 21.2539 19.043 21.1992 18.9336 21.1992L18.8516 21.1992C18.8333 21.1992 18.8151 21.2174 18.7969 21.2539C18.7604 21.2904 18.7422 21.3177 18.7422 21.3359L18.7422 21.8281C18.888 22.3021 18.9883 22.8307 19.043 23.4141C19.0977 24.0156 19.1159 24.5898 19.0977 25.1367C19.0794 25.7018 19.0339 26.1849 18.9609 26.5859C18.8698 26.987 18.7695 27.224 18.6602 27.2969C18.5508 27.3698 18.4232 27.2331 18.2773 26.8867C18.1133 26.5404 17.9492 25.8841 17.7852 24.918C17.7852 24.8633 17.7669 24.7357 17.7305 24.5352C17.6758 24.3529 17.6302 24.1432 17.5937 23.9062C17.5573 23.6875 17.5208 23.4779 17.4844 23.2773C17.4297 23.0768 17.4023 22.9492 17.4023 22.8945C17.3841 22.8216 17.375 22.6667 17.375 22.4297C17.3568 22.1927 17.3385 21.9557 17.3203 21.7187C17.3021 21.4635 17.293 21.2266 17.293 21.0078C17.293 20.7708 17.293 20.6068 17.293 20.5156L17.1289 20.3789L13.5469 18.2461C13.4193 18.1732 13.319 18.0456 13.2461 17.8633C13.1732 17.6628 13.1367 17.5078 13.1367 17.3984C13.1367 17.1615 13.237 16.9974 13.4375 16.9062C13.6198 16.8151 13.8021 16.7695 13.9844 16.7695C14.0026 16.7695 14.0208 16.7786 14.0391 16.7969C14.0573 16.7969 14.0755 16.7969 14.0937 16.7969L14.2031 16.7969L17.1289 18L17.293 18C17.1836 17.9635 17.1289 17.8997 17.1289 17.8086C17.1289 17.6992 17.1289 17.6172 17.1289 17.5625C17.1289 17.2891 17.22 17.0247 17.4023 16.7695C17.5846 16.5143 17.8307 16.3867 18.1406 16.3867C18.2865 16.3867 18.4049 16.4323 18.4961 16.5234C18.5872 16.6146 18.6602 16.724 18.7148 16.8516C18.7695 16.9792 18.8151 17.1159 18.8516 17.2617C18.8698 17.4076 18.8789 17.5352 18.8789 17.6445C18.8789 17.8633 18.8516 18.0729 18.7969 18.2734C18.7422 18.4557 18.7148 18.6562 18.7148 18.875C18.7148 19.0755 18.8242 19.2578 19.043 19.4219C19.2435 19.5859 19.5169 19.7409 19.8633 19.8867C20.1914 20.0143 20.5651 20.1237 20.9844 20.2148C21.4036 20.306 21.8138 20.388 22.2148 20.4609C22.6159 20.5339 22.9896 20.5885 23.3359 20.625C23.6823 20.6432 23.9466 20.6523 24.1289 20.6523C24.2018 20.6523 24.3477 20.6523 24.5664 20.6523C24.7852 20.6341 24.931 20.625 25.0039 20.625C25.1133 20.6068 25.2135 20.5612 25.3047 20.4883C25.3776 20.4154 25.4596 20.3424 25.5508 20.2695L25.5508 19.6406C25.5508 18.9115 25.3867 18.1914 25.0586 17.4805C24.7305 16.7513 24.3568 16.0677 23.9375 15.4297C23.9193 15.3932 23.8372 15.3112 23.6914 15.1836C23.5273 15.0378 23.3724 14.8828 23.2266 14.7187C23.0625 14.5547 22.9167 14.4089 22.7891 14.2812C22.6615 14.1354 22.5977 14.0352 22.5977 13.9805C22.5977 13.8529 22.6615 13.7344 22.7891 13.625C22.9167 13.5156 23.0534 13.4609 23.1992 13.4609C23.5456 13.4609 23.8828 13.5885 24.2109 13.8437C24.5391 14.0807 24.849 14.3906 25.1406 14.7734C25.4141 15.1562 25.6693 15.5937 25.9062 16.0859C26.1432 16.5781 26.3437 17.0703 26.5078 17.5625C26.6719 18.0365 26.7995 18.4922 26.8906 18.9297C26.9818 19.349 27.0273 19.6953 27.0273 19.9687C27.0273 20.224 27 20.4883 26.9453 20.7617C26.8724 21.0352 26.763 21.2812 26.6172 21.5C26.4714 21.7187 26.2891 21.901 26.0703 22.0469C25.8516 22.1927 25.5781 22.2656 25.25 22.2656L22.2148 22.2656L19.6719 21.582ZM23.1445 13.1602C23.2174 13.306 23.263 13.4609 23.2812 13.625C23.2812 13.7891 23.2812 13.9531 23.2812 14.1172C23.2812 14.2812 23.2904 14.4453 23.3086 14.6094C23.3086 14.7734 23.345 14.9375 23.418 15.1016C23.4544 15.4115 23.4362 15.612 23.3633 15.7031C23.2721 15.7943 23.1536 15.8216 23.0078 15.7852C22.862 15.7487 22.6979 15.6484 22.5156 15.4844C22.3333 15.3203 22.1784 15.1289 22.0508 14.9102C21.9232 14.7096 21.832 14.4909 21.7773 14.2539C21.7227 13.9987 21.7318 13.7708 21.8047 13.5703C21.4766 13.6615 21.194 13.6523 20.957 13.543C20.72 13.4336 20.6016 13.2148 20.6016 12.8867C20.6016 12.7227 20.6198 12.5768 20.6562 12.4492C20.6745 12.3034 20.7474 12.194 20.875 12.1211C20.7109 11.8477 20.4375 11.4831 20.0547 11.0273C19.6536 10.5716 19.2526 10.1068 18.8516 9.63281C18.4323 9.14062 18.0677 8.69401 17.7578 8.29297C17.4297 7.89193 17.2656 7.61849 17.2656 7.47266C17.2656 7.41797 17.2747 7.34505 17.293 7.25391C17.293 7.16276 17.3112 7.07161 17.3477 6.98047C17.3841 6.87109 17.4297 6.78906 17.4844 6.73437C17.5208 6.66146 17.5846 6.625 17.6758 6.625L18.8516 6.625C19.362 6.7526 19.845 6.88021 20.3008 7.00781C20.7383 7.11719 21.1758 7.21745 21.6133 7.30859C22.0325 7.38151 22.4609 7.4362 22.8984 7.47265C23.3359 7.50911 23.8008 7.52734 24.293 7.52734C24.293 7.23568 24.2292 6.88932 24.1016 6.48828C23.974 6.06901 23.819 5.64974 23.6367 5.23047C23.4544 4.8112 23.2721 4.41927 23.0898 4.05469C22.8893 3.6901 22.7253 3.39844 22.5977 3.17969C22.5794 3.14323 22.5156 3.0612 22.4062 2.93359C22.2969 2.80599 22.1875 2.66927 22.0781 2.52344C21.9505 2.3776 21.8411 2.24088 21.75 2.11328C21.6406 1.96745 21.5677 1.8763 21.5312 1.83984C21.4948 1.80338 21.4492 1.71224 21.3945 1.5664C21.3216 1.42057 21.276 1.33854 21.2578 1.32031C21.2396 1.24739 21.2669 1.18359 21.3398 1.1289C21.3945 1.05599 21.4674 0.992186 21.5586 0.937499C21.6315 0.882811 21.7135 0.846353 21.8047 0.828124C21.8776 0.791665 21.9232 0.773436 21.9414 0.773436C22.1237 0.773436 22.306 0.846353 22.4883 0.992186C22.6706 1.13802 22.8437 1.3112 23.0078 1.51172C23.1536 1.71224 23.2995 1.92187 23.4453 2.14062C23.5729 2.34114 23.6914 2.49609 23.8008 2.60547C23.8737 2.7513 23.9922 3.00651 24.1562 3.37109C24.3203 3.71745 24.4935 4.09114 24.6758 4.49219C24.8581 4.89323 25.0312 5.27604 25.1953 5.64062C25.3594 5.98698 25.4779 6.23307 25.5508 6.3789C25.569 6.41536 25.5963 6.49739 25.6328 6.625C25.651 6.7526 25.6875 6.88932 25.7422 7.03515C25.7969 7.18099 25.8424 7.32682 25.8789 7.47265C25.8971 7.60026 25.9154 7.68229 25.9336 7.71875C25.9883 7.88281 26.0794 8.01042 26.207 8.10156C26.3346 8.17448 26.4622 8.25651 26.5898 8.34765C26.7174 8.42057 26.8268 8.52083 26.918 8.64844C27.0091 8.75781 27.0365 8.9401 27 9.19531C26.9818 9.21354 26.9453 9.29557 26.8906 9.4414C26.8177 9.56901 26.763 9.65104 26.7266 9.6875C26.4167 10.125 26.125 10.4987 25.8516 10.8086C25.5781 11.1185 25.3138 11.401 25.0586 11.6562C24.7852 11.9115 24.4935 12.1576 24.1836 12.3945C23.8737 12.6133 23.5273 12.8685 23.1445 13.1602ZM22.0508 11.4375C22.3242 11.3099 22.5885 11.1914 22.8437 11.082C23.099 10.9544 23.345 10.8086 23.582 10.6445C23.8008 10.4805 23.9922 10.2982 24.1562 10.0977C24.3203 9.8789 24.4206 9.61458 24.457 9.30469C24.1836 9.26823 23.8555 9.22265 23.4727 9.16797C23.0898 9.11328 22.6888 9.04948 22.2695 8.97656C21.8503 8.90364 21.4401 8.82161 21.0391 8.73047C20.6198 8.62109 20.2552 8.5026 19.9453 8.375L19.9453 8.64844C20.1458 8.9401 20.3464 9.21354 20.5469 9.46875C20.7292 9.70573 20.9115 9.94271 21.0937 10.1797C21.2578 10.4167 21.4036 10.6081 21.5312 10.7539C21.5495 10.7721 21.5768 10.7995 21.6133 10.8359C21.6497 10.8724 21.668 10.8997 21.668 10.918C21.7044 10.9362 21.7682 11.0182 21.8594 11.1641C21.9505 11.3099 22.0143 11.401 22.0508 11.4375ZM19.5352 8.375C19.5352 8.42969 19.5807 8.45703 19.6719 8.45703C19.7448 8.45703 19.7812 8.42969 19.7812 8.375C19.7812 8.30208 19.7448 8.26562 19.6719 8.26562C19.5807 8.26562 19.5352 8.30208 19.5352 8.375Z" fill="black"/>
</svg>
