<svg width="22" height="107" viewBox="0 0 22 107" fill="none" xmlns="http://www.w3.org/2000/svg">
<path d="M21 106.068L1.4 106.068L1.4 94L3.612 94L3.612 103.744L10.024 103.744L10.024 95.092L12.236 95.092L12.236 103.744L21 103.744L21 106.068ZM15.736 90.5584C14.9893 90.5584 14.28 90.4184 13.608 90.1384C12.936 89.8397 12.3573 89.4384 11.872 88.9344C11.368 88.4304 10.976 87.8424 10.696 87.1704C10.3973 86.4797 10.248 85.7424 10.248 84.9584C10.248 84.1744 10.3973 83.4371 10.696 82.7464C10.976 82.0557 11.368 81.4584 11.872 80.9544C12.3573 80.4504 12.936 80.0584 13.608 79.7784C14.28 79.4797 14.9893 79.3304 15.736 79.3304C16.5013 79.3304 17.22 79.4797 17.892 79.7784C18.5453 80.0584 19.124 80.4504 19.628 80.9544C20.132 81.4584 20.5333 82.0557 20.832 82.7464C21.112 83.4371 21.252 84.1744 21.252 84.9584C21.252 85.7424 21.112 86.4797 20.832 87.1704C20.5333 87.8424 20.132 88.4304 19.628 88.9344C19.124 89.4384 18.5453 89.8397 17.892 90.1384C17.22 90.4184 16.5013 90.5584 15.736 90.5584ZM15.764 88.2344C16.212 88.2344 16.632 88.1504 17.024 87.9824C17.416 87.8144 17.7613 87.5904 18.06 87.3104C18.34 87.0117 18.564 86.6664 18.732 86.2744C18.9 85.8824 18.984 85.4624 18.984 85.0144C18.984 84.5664 18.9 84.1464 18.732 83.7544C18.564 83.3624 18.34 83.0171 18.06 82.7184C17.7613 82.4197 17.416 82.1864 17.024 82.0184C16.632 81.8504 16.212 81.7664 15.764 81.7664C15.316 81.7664 14.896 81.8504 14.504 82.0184C14.112 82.1864 13.7667 82.4197 13.468 82.7184C13.1693 83.0171 12.936 83.3624 12.768 83.7544C12.6 84.1464 12.516 84.5664 12.516 85.0144C12.516 85.4624 12.6 85.8824 12.768 86.2744C12.936 86.6664 13.1693 87.0117 13.468 87.3104C13.7667 87.5904 14.112 87.8144 14.504 87.9824C14.896 88.1504 15.316 88.2344 15.764 88.2344ZM21 74.3293L21 76.6533L-3.03914e-06 76.6533L-3.14072e-06 74.3293L21 74.3293ZM21 68.8879L21 71.2119L-3.27699e-06 71.2119L-3.37857e-06 68.8879L21 68.8879ZM15.736 66.3865C14.9893 66.3865 14.28 66.2465 13.608 65.9665C12.936 65.6679 12.3573 65.2665 11.872 64.7625C11.368 64.2585 10.976 63.6705 10.696 62.9985C10.3973 62.3079 10.248 61.5705 10.248 60.7865C10.248 60.0025 10.3973 59.2652 10.696 58.5745C10.976 57.8839 11.368 57.2865 11.872 56.7825C12.3573 56.2785 12.936 55.8865 13.608 55.6065C14.28 55.3079 14.9893 55.1585 15.736 55.1585C16.5013 55.1585 17.22 55.3079 17.892 55.6065C18.5453 55.8865 19.124 56.2785 19.628 56.7825C20.132 57.2865 20.5333 57.8839 20.832 58.5745C21.112 59.2652 21.252 60.0025 21.252 60.7865C21.252 61.5705 21.112 62.3079 20.832 62.9985C20.5333 63.6705 20.132 64.2585 19.628 64.7625C19.124 65.2665 18.5453 65.6679 17.892 65.9665C17.22 66.2465 16.5013 66.3865 15.736 66.3865ZM15.764 64.0625C16.212 64.0625 16.632 63.9785 17.024 63.8105C17.416 63.6425 17.7613 63.4185 18.06 63.1385C18.34 62.8399 18.564 62.4945 18.732 62.1025C18.9 61.7105 18.984 61.2905 18.984 60.8425C18.984 60.3945 18.9 59.9745 18.732 59.5825C18.564 59.1905 18.34 58.8452 18.06 58.5465C17.7613 58.2479 17.416 58.0145 17.024 57.8465C16.632 57.6785 16.212 57.5945 15.764 57.5945C15.316 57.5945 14.896 57.6785 14.504 57.8465C14.112 58.0145 13.7667 58.2479 13.468 58.5465C13.1693 58.8452 12.936 59.1905 12.768 59.5825C12.6 59.9745 12.516 60.3945 12.516 60.8425C12.516 61.2905 12.6 61.7105 12.768 62.1025C12.936 62.4945 13.1693 62.8399 13.468 63.1385C13.7667 63.4185 14.112 63.6425 14.504 63.8105C14.896 63.9785 15.316 64.0625 15.764 64.0625ZM11.816 44.3335C11.592 44.4455 11.3773 44.5575 11.172 44.6695C10.948 44.7628 10.724 44.8655 10.5 44.9775L10.5 42.6535C11.676 42.1121 12.8613 41.5335 14.056 40.9175C15.232 40.2828 16.4267 39.7601 17.64 39.3495C16.4267 38.9388 15.232 38.4255 14.056 37.8095C12.8613 37.1748 11.676 36.5868 10.5 36.0455L10.5 33.7215C12.3667 34.6735 14.224 35.6161 16.072 36.5495C17.92 37.4641 19.7773 38.3975 21.644 39.3495C20.3747 39.9841 19.124 40.6188 17.892 41.2535C16.6413 41.8881 15.3813 42.5228 14.112 43.1575C15.3813 43.7921 16.6413 44.4268 17.892 45.0615C19.124 45.6961 20.3747 46.3308 21.644 46.9655C19.7773 47.9175 17.92 48.8601 16.072 49.7935C14.224 50.7081 12.3667 51.6415 10.5 52.5935L10.5 50.2695C11.676 49.7281 12.8613 49.1495 14.056 48.5335C15.232 47.8988 16.4267 47.3761 17.64 46.9655C16.632 46.6295 15.652 46.2188 14.7 45.7335C13.7293 45.2295 12.768 44.7628 11.816 44.3335ZM21.252 11.37L21.252 13.694L19.572 13.694L18.312 13.61C19.208 13.9834 19.9267 14.59 20.468 15.43C20.9907 16.2514 21.252 17.166 21.252 18.174C21.252 19.2754 20.9627 20.1434 20.384 20.778C19.8053 21.4127 19.0493 21.7487 18.116 21.786L10.5 21.786L10.5 19.462L17.052 19.462C17.556 19.4247 17.9947 19.2474 18.368 18.93C18.7227 18.594 18.9187 18.0714 18.956 17.362C18.956 16.8767 18.872 16.4194 18.704 15.99C18.536 15.542 18.3027 15.15 18.004 14.814C17.7053 14.478 17.3507 14.2074 16.94 14.002C16.5293 13.7967 16.0813 13.694 15.596 13.694L10.5 13.694L10.5 11.37L21.252 11.37ZM11.424 0.973718C11.7227 1.17905 12.012 1.39372 12.292 1.61772C12.572 1.84172 12.8613 2.05638 13.16 2.26172C13.0667 2.35505 12.936 2.54172 12.768 2.82172C12.6 3.08305 12.516 3.43772 12.516 3.88572C12.516 4.29638 12.6093 4.59505 12.796 4.78172C12.964 4.96838 13.1973 5.04305 13.496 5.00572C13.72 4.96838 13.9067 4.82838 14.056 4.58572C14.1867 4.34305 14.3173 4.06305 14.448 3.74572C14.5787 3.40972 14.728 3.05505 14.896 2.68172C15.064 2.30838 15.2787 1.96305 15.54 1.64572C15.7827 1.32838 16.1 1.06705 16.492 0.861718C16.8653 0.656384 17.3413 0.553717 17.92 0.553717C18.1813 0.553717 18.4987 0.609718 18.872 0.721718C19.2453 0.815051 19.6093 0.992384 19.964 1.25372C20.3187 1.51505 20.6173 1.87905 20.86 2.34572C21.1027 2.81238 21.224 3.41905 21.224 4.16572C21.224 4.85638 21.112 5.51905 20.888 6.15372C20.6453 6.78838 20.3187 7.29238 19.908 7.66572C19.628 7.42305 19.348 7.18972 19.068 6.96572C18.7693 6.74172 18.48 6.50838 18.2 6.26572C18.4613 5.85505 18.6573 5.50972 18.788 5.22972C18.9 4.94972 18.956 4.58572 18.956 4.13772C18.956 4.11905 18.956 4.05372 18.956 3.94172C18.9373 3.81105 18.9 3.67105 18.844 3.52172C18.7693 3.37238 18.6667 3.24172 18.536 3.12972C18.4053 2.99905 18.2093 2.92438 17.948 2.90572C17.612 2.88705 17.36 2.98038 17.192 3.18572C17.0053 3.39105 16.856 3.66172 16.744 3.99772C16.6133 4.31505 16.492 4.66972 16.38 5.06172C16.2493 5.45372 16.0813 5.82705 15.876 6.18172C15.652 6.51772 15.344 6.79772 14.952 7.02172C14.56 7.24572 14.0373 7.35772 13.384 7.35772C12.8053 7.35772 12.32 7.24572 11.928 7.02172C11.536 6.79772 11.2187 6.51772 10.976 6.18172C10.7147 5.84572 10.528 5.48172 10.416 5.08972C10.304 4.69772 10.248 4.34305 10.248 4.02572C10.248 3.83905 10.2667 3.61505 10.304 3.35372C10.3413 3.07372 10.4067 2.79372 10.5 2.51372C10.5933 2.23372 10.7147 1.96305 10.864 1.70172C11.0133 1.42172 11.2 1.17905 11.424 0.973718Z" fill="#444A4A"/>
</svg>
